<?xml version="1.0" encoding="utf-8"?>
<!-- Generator: Adobe Illustrator 16.0.3, SVG Export Plug-In . SVG Version: 6.00 Build 0)  -->
<!DOCTYPE svg PUBLIC "-//W3C//DTD SVG 1.1//EN" "http://www.w3.org/Graphics/SVG/1.1/DTD/svg11.dtd">
<svg version="1.1" id="Layer_1" xmlns="http://www.w3.org/2000/svg" xmlns:xlink="http://www.w3.org/1999/xlink" x="0px" y="0px"
	 width="800px" height="600px" viewBox="0 0 800 600" enable-background="new 0 0 800 600" xml:space="preserve">
<g>
	<g>
		<path fill-rule="evenodd" clip-rule="evenodd" d="M253,585c-4.333,0-8.667,0-13,0c-3.165-0.853-6.476-1.354-9.471-2.611
			c-27.578-11.566-54.313-24.789-79.085-41.655c-18.805-12.804-36.14-27.281-49.235-46.188
			c-14.039-20.269-20.384-42.433-15.031-66.964c4.857-22.26,16.909-40.713,32.602-56.729c9.372-9.564,19.734-18.159,29.358-26.923
			c-5.899-7.231-12.807-14.497-18.309-22.705c-10.275-15.326-13.736-32.2-10.797-50.772c2.404-15.196,3.942-30.657,4.216-46.029
			c0.281-15.753-1.302-31.552-2.337-47.313c-0.686-10.433-2.939-20.111-8.669-29.535c-8.666-14.25-16.227-29.35-22.549-44.788
			C86.044,91.438,84.131,78.97,81,67c0-4.667,0-9.333,0-14c0.205-0.251,0.56-0.482,0.594-0.755C83.701,35.475,92.312,23.589,108,17
			c1.333,0,2.667,0,4,0c0.751,0.294,1.482,0.761,2.258,0.858c31.563,3.967,60.763,14.687,87.986,30.938
			c40.301,24.059,72.102,57.087,99.223,94.902c34.904,48.667,60.326,102.198,80.513,158.37c0.893,2.484,1.82,4.957,2.731,7.435
			c1-1.142,1.073-2.085,1.211-3.02c2.039-13.77,4.128-27.533,6.086-41.314c0.286-2.01,0.444-4.267-0.165-6.14
			c-8.349-25.671-16.845-51.294-25.3-76.931c-3.922-11.892-7.834-23.786-11.751-35.679c0.414-0.144,0.828-0.286,1.242-0.429
			c28.104,31.034,35.992,69.427,38.45,108.994c1.537-1.21,2.98-3.207,4.637-3.403c1.597-0.19,3.416,1.479,5.255,2.391
			c2.732-39.994,10.848-77.974,39.456-108.419c-11.665,36.931-23.837,73.683-35.76,110.514c-0.983,3.038-0.73,6.682-0.282,9.938
			c1.196,8.695,2.979,17.309,4.212,26c1.101,7.756,1.778,15.572,2.712,23.998c0.678-0.97,1.039-1.301,1.174-1.707
			c12.155-36.572,27.065-71.975,45.061-106.064c25.656-48.605,56.439-93.363,98.149-129.808
			c29.139-25.461,61.774-44.749,99.462-54.634C668.922,21.073,679.514,19.239,690,17c1.333,0,2.667,0,4,0
			c12.395,5.215,20.956,13.96,24.766,27.023c0.862,2.958,1.496,5.982,2.234,8.977c0,4.667,0,9.333,0,14
			c-1.891,8.369-3.284,16.889-5.766,25.079c-6.885,22.729-18.429,43.258-30.826,63.351c-1.17,1.896-2.163,4.187-2.338,6.366
			c-1.636,20.369-3.644,40.734-4.355,61.142c-0.421,12.061,1.077,24.214,2.146,36.288c0.582,6.581,2.595,13.047,3.045,19.627
			c1.274,18.629-5.077,34.938-16.55,49.322c-4.431,5.554-9.487,10.608-14.227,15.854c0.054,0.233,0.037,0.45,0.133,0.527
			c0.644,0.517,1.308,1.008,1.97,1.5c22.028,16.378,41.062,35.433,53.229,60.45c7.967,16.379,11.21,33.571,7.898,51.738
			c-4.043,22.178-15.816,40.144-31.674,55.308C648.815,546.901,607.296,569.244,562,585c-4.333,0-8.667,0-13,0
			c-9.73-3.1-19.978-5.127-29.088-9.514c-21.532-10.367-37.318-27.536-50.943-46.744c-23.493-33.12-38.518-70.246-50.973-108.566
			c-0.24-0.739-0.767-1.385-1.439-2.563c-0.537,9.711-0.689,18.711-1.6,27.635c-1.801,17.662-3.73,35.323-6.233,52.896
			c-0.825,5.793-3.164,11.498-5.587,16.894c-1.842,4.1-4.772,3.949-6.898,0.03c-1.408-2.597-2.76-5.43-3.218-8.303
			c-2.819-17.669-5.629-35.346-7.918-53.088c-1.2-9.302-1.333-18.741-1.947-28.119c-1.273,1.308-1.743,2.685-2.218,4.061
			c-11.616,33.661-25.299,66.347-45.617,95.859c-14.124,20.515-30.462,38.939-53.233,50.008C272.997,579.902,262.73,581.9,253,585z"
			/>
		<path fill-rule="evenodd" clip-rule="evenodd" fill="#FFFFFF" d="M690,17c-10.486,2.239-21.078,4.073-31.439,6.791
			c-37.688,9.885-70.323,29.173-99.462,54.634c-41.71,36.444-72.493,81.202-98.149,129.808
			c-17.995,34.09-32.905,69.492-45.061,106.064c-0.135,0.406-0.496,0.737-1.174,1.707c-0.934-8.426-1.611-16.242-2.712-23.998
			c-1.233-8.691-3.016-17.305-4.212-26c-0.448-3.256-0.701-6.899,0.282-9.938c11.923-36.831,24.095-73.583,35.76-110.514
			c-28.608,30.445-36.724,68.425-39.456,108.419c-1.84-0.911-3.658-2.581-5.255-2.391c-1.657,0.196-3.1,2.193-4.637,3.403
			c-2.458-39.567-10.345-77.96-38.45-108.994c-0.414,0.143-0.828,0.285-1.242,0.429c3.917,11.893,7.829,23.787,11.751,35.679
			c8.455,25.637,16.952,51.26,25.3,76.931c0.609,1.873,0.451,4.13,0.165,6.14c-1.958,13.781-4.047,27.545-6.086,41.314
			c-0.138,0.935-0.212,1.878-1.211,3.02c-0.912-2.478-1.839-4.95-2.731-7.435c-20.187-56.172-45.608-109.703-80.513-158.37
			c-27.122-37.815-58.922-70.844-99.223-94.902c-27.223-16.252-56.424-26.972-87.986-30.938c-0.776-0.098-1.507-0.564-2.258-0.858
			C304.667,17,497.333,17,690,17z"/>
		<path fill-rule="evenodd" clip-rule="evenodd" fill="#FFFFFF" d="M562,585c45.296-15.756,86.815-38.099,121.686-71.447
			c15.857-15.164,27.631-33.13,31.674-55.308c3.312-18.167,0.068-35.359-7.898-51.738c-12.168-25.018-31.201-44.072-53.229-60.45
			c-0.662-0.492-1.326-0.983-1.97-1.5c-0.096-0.077-0.079-0.294-0.133-0.527c4.739-5.246,9.796-10.301,14.227-15.854
			c11.473-14.385,17.824-30.693,16.55-49.322c-0.45-6.58-2.463-13.046-3.045-19.627c-1.068-12.074-2.566-24.228-2.146-36.288
			c0.712-20.407,2.72-40.772,4.355-61.142c0.175-2.18,1.168-4.47,2.338-6.366c12.397-20.093,23.941-40.622,30.826-63.351
			c2.481-8.19,3.875-16.71,5.766-25.079c0,172.667,0,345.333,0,518C667.922,585,614.961,585,562,585z"/>
		<path fill-rule="evenodd" clip-rule="evenodd" fill="#FFFFFF" d="M81,67c3.131,11.97,5.044,24.438,9.692,35.788
			c6.322,15.438,13.884,30.538,22.549,44.788c5.73,9.424,7.983,19.103,8.669,29.535c1.036,15.761,2.618,31.56,2.337,47.313
			c-0.273,15.372-1.812,30.833-4.216,46.029c-2.939,18.572,0.522,35.446,10.797,50.772c5.502,8.208,12.41,15.474,18.309,22.705
			c-9.624,8.764-19.986,17.358-29.358,26.923c-15.693,16.016-27.745,34.469-32.602,56.729c-5.353,24.531,0.992,46.695,15.031,66.964
			c13.096,18.906,30.431,33.384,49.235,46.188c24.772,16.866,51.508,30.089,79.085,41.655c2.995,1.257,6.306,1.759,9.471,2.611
			c-53,0-106,0-159,0C81,412.333,81,239.667,81,67z"/>
		<path fill-rule="evenodd" clip-rule="evenodd" fill="#FFFFFF" d="M253,585c9.73-3.1,19.997-5.098,29.086-9.516
			c22.771-11.068,39.11-29.493,53.233-50.008c20.317-29.513,34.001-62.198,45.617-95.859c0.475-1.376,0.944-2.753,2.218-4.061
			c0.615,9.378,0.748,18.817,1.947,28.119c2.289,17.742,5.099,35.419,7.918,53.088c0.458,2.873,1.81,5.706,3.218,8.303
			c2.126,3.919,5.057,4.069,6.898-0.03c2.423-5.396,4.762-11.101,5.587-16.894c2.503-17.572,4.433-35.233,6.233-52.896
			c0.91-8.924,1.063-17.924,1.6-27.635c0.673,1.179,1.199,1.824,1.439,2.563c12.455,38.32,27.479,75.446,50.973,108.566
			c13.625,19.208,29.411,36.377,50.943,46.744c9.11,4.387,19.357,6.414,29.088,9.514C450.334,585,351.667,585,253,585z"/>
		<path fill-rule="evenodd" clip-rule="evenodd" fill="#FFFFFF" d="M108,17c-15.688,6.589-24.299,18.475-26.406,35.245
			C81.56,52.518,81.205,52.749,81,53c0-12,0-24,0-36C90,17,99,17,108,17z"/>
		<path fill-rule="evenodd" clip-rule="evenodd" fill="#FFFFFF" d="M721,53c-0.738-2.994-1.372-6.019-2.234-8.977
			C714.956,30.96,706.395,22.215,694,17c9,0,18,0,27,0C721,29,721,41,721,53z"/>
	</g>
</g>
</svg>
