<?xml version="1.0" encoding="utf-8"?>
<!-- Generator: Adobe Illustrator 18.1.1, SVG Export Plug-In . SVG Version: 6.00 Build 0)  -->
<svg version="1.1" id="Layer_1" xmlns="http://www.w3.org/2000/svg" xmlns:xlink="http://www.w3.org/1999/xlink" x="0px" y="0px"
	 viewBox="0 0 223.3 50" enable-background="new 0 0 223.3 50" xml:space="preserve">
<g>
	<g>
		<path fill="#FEFEFE" d="M111.6-17.8c37.1,0,74.1,0,111.2,0c0.4,0,0.5,0.1,0.5,0.5c0,27.7,0,55.4,0,83.1c0,0.4-0.1,0.5-0.5,0.5
			c-74.1,0-148.3,0-222.4,0c-0.4,0-0.5-0.1-0.5-0.5c0-27.7,0-55.4,0-83.1c0-0.4,0.1-0.5,0.5-0.5C37.5-17.8,74.6-17.8,111.6-17.8z
			 M113.7,12.9c0-1.8,0-3.6,0-5.4c0-0.4-0.1-0.4-0.5-0.4c-2,0.4-4.1,0.7-6.2,1c-0.5,0.1-0.6,0.2-0.6,0.7c0.1,8-0.1,16,0.1,24.1
			c0.1,2.7,0,5.3,0,8c0,0.3,0,0.5,0.4,0.6c1.5,0.4,3,0.5,4.5,0.6c2,0.2,4.1,0.3,6.1,0.3c1.7,0,3.4-0.3,5-0.9c2.5-1,4.3-2.7,4.9-5.4
			c0.3-1.2,0.2-2.4,0.2-3.5c0.1-2.7,0-5.4,0-8.1c0-0.5,0-1-0.1-1.5c-0.3-1.7-1.1-3.1-2.7-4.1c-1.3-0.7-2.7-1-4.2-1.1
			c-2.3-0.1-4.5-0.1-6.7,0.7c-0.5,0.2-0.5,0-0.5-0.4C113.7,16.3,113.7,14.6,113.7,12.9z M199.1,42c-0.7-1.1-1.3-2.2-1.9-3.2
			c-1.7-2.9-3.4-5.8-5.1-8.6c-0.1-0.2-0.2-0.4,0-0.7c0.2-0.4,0.6-0.8,0.8-1.2c0.5-1,1.2-1.9,1.8-2.9c0.9-1.4,1.7-2.9,2.7-4.2
			c0.3-0.4,0.4-0.9,0.7-1.3c0.5-0.5,0.6-1.2,1.1-1.8c-2.7,0-5.3,0-7.8,0c-0.2,0-0.3,0.1-0.4,0.2c-1.8,2.8-3.6,5.7-5.4,8.5
			c-0.3,0.4-0.5,0.9-0.9,1.2c0-0.2-0.1-0.3-0.1-0.5c0.2-2.2,0-4.4,0.1-6.6c0-1.5,0-3,0-4.5c0-3,0.1-6-0.1-9.1c0-0.3-0.1-0.3-0.4-0.3
			c-2.1,0.4-4.3,0.8-6.4,1.1c-0.5,0.1-0.6,0.2-0.6,0.7c0,6.7,0,13.5,0,20.2c0,4.1,0,8.2,0,12.3c0,0.5,0.1,0.6,0.6,0.6c1,0,2,0,3,0
			c1.2,0,2.3,0.1,3.5,0c0.3,0,0.3,0,0.3-0.4c0-1.5,0-3,0-4.5c0-0.8,0.2-1.5,0.1-2.3c-0.2-1.1,0.1-2.2-0.1-3.3c0-0.1,0-0.3,0.1-0.3
			c0.1,0.2,0.3,0.4,0.4,0.6c2,3.3,3.9,6.6,5.9,9.8c0.1,0.2,0.3,0.3,0.5,0.3C193.9,42,196.4,42,199.1,42z M97.3,32.3
			c2.1,0,4.1,0,6.2,0c0.4,0,0.6-0.1,0.6-0.5c0-1.6,0-3.3,0-4.9c0-1.5-0.3-2.9-1-4.3c-1-2-2.6-3.3-4.7-4c-2.2-0.8-4.4-0.9-6.7-0.7
			c-1.6,0.1-3.1,0.5-4.5,1.3c-2.6,1.4-3.9,3.7-4,6.6c-0.1,2.1,0,4.3,0,6.4c0,1.1,0,2.2,0.2,3.3c0.5,2.4,1.8,4.3,4,5.5
			c2.1,1.2,4.5,1.5,6.9,1.6c1.8,0.1,3.6-0.2,5.4-0.4c1.2-0.2,2.3-0.4,3.5-0.6c0.3,0,0.3-0.2,0.3-0.4c0-1.8,0.1-3.6-0.1-5.4
			c0-0.3-0.1-0.4-0.4-0.3c-1.6,0.2-3.2,0.4-4.8,0.6C97.4,36,96.7,36,96,36.1c-1.1,0.1-2.2,0.2-3.3-0.1c-1.6-0.5-2-1.3-2.2-3.2
			c0-0.4,0.1-0.6,0.5-0.5C93.1,32.3,95.2,32.3,97.3,32.3z M130,30.2c0.1,1.4-0.1,3.1,0.1,4.9c0.3,2.5,1.5,4.3,3.7,5.6
			c1.6,0.9,3.3,1.3,5,1.4c2.5,0.2,5,0.2,7.3-0.8c3.1-1.2,4.9-3.6,5.1-6.8c0.2-3.1,0.2-6.2-0.1-9.3c-0.2-1.7-0.9-3.3-2.1-4.5
			c-1.9-1.9-4.2-2.7-6.8-2.8c-1.2-0.1-2.4-0.1-3.6,0.1c-1.9,0.2-3.8,0.7-5.4,1.8c-2,1.4-3.1,3.4-3.3,5.8
			C129.9,26.9,130,28.4,130,30.2z M174.8,30.1c0-1.3,0-2.6,0-3.9c0-1-0.2-1.9-0.5-2.8c-1-2.7-3-4.3-5.7-5.1
			c-2.2-0.7-4.4-0.6-6.6-0.4c-1.6,0.1-3.1,0.5-4.5,1.3c-2.3,1.2-3.6,3.2-4.1,5.7c-0.2,1-0.1,2-0.1,3.1c0,2.4-0.2,4.9,0.1,7.3
			c0.3,2.4,1.6,4.3,3.7,5.5c1.5,0.9,3.2,1.3,5,1.4c2.3,0.2,4.5,0.2,6.7-0.5c3.6-1.1,5.8-4.3,5.8-8C174.8,32.4,174.8,31.2,174.8,30.1
			z M60.1,31.9C60.1,31.9,60.1,31.9,60.1,31.9c0-1.2,0-2.4,0-3.6c0-1.6,0.1-3.1-0.1-4.7c-0.2-1.3-0.8-2.4-1.7-3.3
			c-1.6-1.5-3.5-2-5.6-2.2c-0.9-0.1-1.8,0-2.6,0c-2.1,0-4.3,0-6.4,0c-0.5,0-0.6,0.2-0.6,0.6c-0.1,1-0.2,1.9-0.3,2.9
			c-0.1,0.8-0.2,1.5-0.2,2.3c0,0.2-0.1,0.4,0.3,0.4c1,0,2.1,0,3.1,0c1.7-0.1,3.4-0.2,5,0.1c0.9,0.1,1.5,0.6,1.8,1.6
			c0.2,0.7,0.2,1.4,0.2,2.1c0,0.3-0.1,0.4-0.4,0.4c-1.1,0-2.2,0-3.3,0c-1.5,0-3-0.1-4.5,0.2c-2,0.5-3.6,1.5-4.2,3.6
			c-0.5,1.4-0.5,2.9-0.3,4.3c0.3,1.9,1,3.6,2.6,4.7c1,0.7,2.1,1.1,3.2,1.1c1.3,0.1,2.6-0.1,3.8-0.5c1-0.3,1.9-0.5,2.8-1
			c1-0.5,1-0.5,1.4,0.5c0,0.1,0,0.1,0,0.2c0.1,0.3,0.2,0.4,0.6,0.4c0.8,0,1.5,0,2.3,0c1,0,2,0.1,2.9,0c0.3,0,0.5-0.1,0.4-0.4
			c-0.2-0.8,0-1.6,0-2.5C60.1,36.8,60.1,34.4,60.1,31.9z M34.9,33.1C34.9,33.1,34.9,33.1,34.9,33.1c0-2.7,0-5.5,0-8.2
			c0-0.7,0-0.7,0.7-0.7c1,0,2.1,0,3.1,0c0.4,0,0.9,0.2,1.2-0.1c0.3-0.2,0.1-0.7,0.2-1.1c0,0,0,0,0-0.1c0.2-1.5,0.3-3,0.5-4.5
			c0.1-0.4-0.1-0.5-0.5-0.5c-1.6,0-3.1,0-4.7,0c-0.3,0-0.5-0.1-0.5-0.4c0-1,0-2,0-3c0.1-1.1,0.4-1.9,1.9-1.9c1.1,0,2.1,0,3.2,0
			c0.3,0,0.5-0.1,0.4-0.4c0-1.7,0-3.4,0-5.2c0-0.4-0.1-0.5-0.5-0.5c-1.6,0-3.2,0-4.8,0c-0.8,0-1.6,0.1-2.4,0.2
			c-3.2,0.6-5.2,3.2-5.1,6.4c0,1.5,0,2.9,0,4.4c0,0.4-0.1,0.5-0.5,0.5c-1,0-1.9,0-2.9,0c-0.4,0-0.4,0.1-0.4,0.4c0,1.8,0,3.6,0,5.4
			c0,0.3,0.1,0.4,0.4,0.4c0.9,0,1.8,0,2.7,0c0.5,0,0.7,0.1,0.7,0.7c0,5.5,0,11,0,16.5c0,0.4,0.1,0.6,0.5,0.5c2.1,0,4.2,0,6.3,0
			c0.4,0,0.5-0.1,0.5-0.5C34.9,38.7,34.9,35.9,34.9,33.1z M62.6,29.9c0,1.2,0,2.3,0,3.5c0,0.7,0.1,1.4,0.3,2.1
			c0.7,2.9,2.5,4.8,5.3,5.9c1.6,0.6,3.2,0.9,4.9,1c1.5,0,3-0.1,4.4-0.3c1.1-0.2,2.2-0.3,3.4-0.6c0.3-0.1,0.3-0.2,0.3-0.4
			c0-0.6-0.1-1.2-0.1-1.8c0-1.2,0-2.3-0.1-3.5c0-0.2,0-0.3-0.3-0.3c-0.7,0.2-1.3,0.3-2,0.4c-0.9,0.1-1.8,0.1-2.7,0.2
			c-1.2,0.1-2.3,0.1-3.5-0.2C71,35.6,70,34.4,70,33.1c0-1.2,0.1-2.5,0-3.7c-0.1-0.8,0-1.6,0-2.4c0-1.6,0.5-2.5,2.1-2.9
			c1.1-0.3,2.2-0.2,3.4-0.1c1.6,0.1,3.2,0.4,4.7,0.6c0.8,0.1,0.9,0.1,0.9-0.8c0-0.1,0-0.1,0-0.2c-0.1-1.5-0.1-3-0.2-4.4
			c0-0.4-0.2-0.6-0.5-0.6c-0.8-0.2-1.6-0.3-2.5-0.4c-2.1-0.3-4.2-0.5-6.3-0.3C70,18,68.5,18.4,67,19.2c-2.8,1.5-4.2,4-4.3,7.1
			C62.6,27.5,62.6,28.7,62.6,29.9z"/>
		<path fill="#5B71AB" d="M113.7,12.9c0,1.7,0,3.5,0,5.2c0,0.4,0,0.6,0.5,0.4c2.2-0.8,4.4-0.8,6.7-0.7c1.4,0.1,2.9,0.4,4.2,1.1
			c1.6,0.9,2.4,2.3,2.7,4.1c0.1,0.5,0.1,1,0.1,1.5c0,2.7,0,5.4,0,8.1c0,1.2,0.1,2.4-0.2,3.5c-0.7,2.7-2.4,4.4-4.9,5.4
			c-1.6,0.6-3.3,0.8-5,0.9c-2.1,0-4.1-0.1-6.1-0.3c-1.5-0.1-3-0.2-4.5-0.6c-0.4-0.1-0.4-0.2-0.4-0.6c0-2.7,0.1-5.3,0-8
			c-0.2-8-0.1-16-0.1-24.1c0-0.5,0.1-0.6,0.6-0.7c2.1-0.3,4.1-0.7,6.2-1c0.3-0.1,0.5,0,0.5,0.4C113.7,9.3,113.7,11.1,113.7,12.9z
			 M113.8,30.5c0,0.9,0,1.7,0,2.6c0,0.9,0,1.8,0,2.7c0,0.3,0.1,0.4,0.4,0.4c0.4,0,0.7,0,1.1,0.1c0.9,0.1,1.8,0.1,2.6-0.1
			c1.5-0.4,2.5-1.8,2.5-3.4c0-2.1,0-4.2,0-6.4c0-0.1,0-0.3,0-0.4c-0.3-1.6-2-2.3-3.4-2.1c-1,0.1-2,0.4-2.9,0.9
			c-0.3,0.2-0.4,0.3-0.4,0.6C113.8,27.1,113.8,28.8,113.8,30.5z"/>
		<path fill="#5B71AB" d="M199.1,42c-2.7,0-5.2,0-7.8,0c-0.2,0-0.4-0.1-0.5-0.3c-1.9-3.3-3.9-6.6-5.9-9.8c-0.1-0.2-0.3-0.4-0.4-0.6
			c-0.2,0.1-0.2,0.2-0.1,0.3c0.2,1.1-0.1,2.2,0.1,3.3c0.1,0.7-0.1,1.5-0.1,2.3c0,1.5,0,3,0,4.5c0,0.3-0.1,0.3-0.3,0.4
			c-1.2,0.1-2.3,0-3.5,0c-1,0-2,0-3,0c-0.4,0-0.6-0.1-0.6-0.6c0-4.1,0-8.2,0-12.3c0-6.7,0-13.5,0-20.2c0-0.5,0.1-0.6,0.6-0.7
			c2.1-0.3,4.3-0.7,6.4-1.1c0.2,0,0.3,0,0.4,0.3c0.1,3,0.1,6,0.1,9.1c0,1.5,0.1,3,0,4.5c-0.1,2.2,0.1,4.4-0.1,6.6
			c0,0.1,0.1,0.3,0.1,0.5c0.4-0.3,0.6-0.8,0.9-1.2c1.8-2.8,3.6-5.7,5.4-8.5c0.1-0.2,0.2-0.2,0.4-0.2c2.6,0,5.2,0,7.8,0
			c-0.4,0.6-0.6,1.3-1.1,1.8c-0.3,0.4-0.4,0.9-0.7,1.3c-1,1.4-1.8,2.8-2.7,4.2c-0.6,1-1.3,1.9-1.8,2.9c-0.2,0.4-0.5,0.8-0.8,1.2
			c-0.1,0.3-0.1,0.4,0,0.7c1.7,2.9,3.4,5.8,5.1,8.6C197.8,39.8,198.4,40.8,199.1,42z"/>
		<path fill="#5B71AB" d="M97.3,32.3c-2.1,0-4.2,0-6.3,0c-0.4,0-0.6,0.1-0.5,0.5c0.2,1.8,0.5,2.7,2.2,3.2c1.1,0.3,2.2,0.2,3.3,0.1
			c0.7-0.1,1.4-0.1,2.1-0.1c1.6-0.2,3.2-0.3,4.8-0.6c0.3,0,0.4,0,0.4,0.3c0.2,1.8,0,3.6,0.1,5.4c0,0.2,0,0.3-0.3,0.4
			c-1.2,0.2-2.3,0.4-3.5,0.6c-1.8,0.3-3.6,0.5-5.4,0.4c-2.4-0.1-4.7-0.4-6.9-1.6c-2.1-1.2-3.5-3-4-5.5c-0.2-1.1-0.2-2.2-0.2-3.3
			c0-2.1-0.1-4.3,0-6.4c0.1-2.9,1.5-5.2,4-6.6c1.4-0.8,2.9-1.1,4.5-1.3c2.3-0.2,4.5-0.1,6.7,0.7c2.1,0.7,3.6,2.1,4.7,4
			c0.7,1.4,1,2.8,1,4.3c0,1.6,0,3.3,0,4.9c0,0.5-0.2,0.5-0.6,0.5C101.5,32.3,99.4,32.3,97.3,32.3z M93.5,27.2c0.9,0,1.8,0,2.7,0
			c0.3,0,0.4-0.1,0.4-0.4c0-0.5,0-0.9,0-1.4c0-0.9-0.6-1.6-1.4-1.9c-0.9-0.3-1.8-0.4-2.6-0.2c-0.8,0.2-1.4,0.6-1.8,1.4
			c-0.3,0.7-0.2,1.5-0.2,2.2c0,0.3,0.2,0.2,0.4,0.2C91.8,27.2,92.6,27.2,93.5,27.2z"/>
		<path fill="#5B71AB" d="M130,30.2c0-1.8-0.1-3.3,0-4.7c0.2-2.4,1.3-4.4,3.3-5.8c1.6-1.1,3.5-1.6,5.4-1.8c1.2-0.1,2.4-0.1,3.6-0.1
			c2.6,0.2,5,0.9,6.8,2.8c1.2,1.3,1.9,2.8,2.1,4.5c0.3,3.1,0.3,6.2,0.1,9.3c-0.2,3.3-2,5.6-5.1,6.8c-2.4,1-4.8,1-7.3,0.8
			c-1.8-0.2-3.5-0.5-5-1.4c-2.1-1.2-3.4-3.1-3.7-5.6C129.8,33.4,130,31.6,130,30.2z M144,29.9c0-1.1,0-2.3,0-3.4
			c0-0.8-0.3-1.5-1.1-2c-1-0.6-2.2-0.8-3.4-0.5c-1.5,0.3-2.3,1.4-2.3,2.9c0,2,0,4.1,0,6.1c0,0.8,0.2,1.6,0.8,2.2
			c1,1.1,2.3,1.2,3.6,0.8c1.5-0.4,2.3-1.5,2.3-3C144,32,144,31,144,29.9z"/>
		<path fill="#5B71AB" d="M174.8,30.1c0,1.2,0,2.3,0,3.5c0,3.7-2.2,6.9-5.8,8c-2.2,0.7-4.5,0.7-6.7,0.5c-1.8-0.2-3.4-0.5-5-1.4
			c-2.1-1.2-3.4-3.1-3.7-5.5c-0.3-2.4-0.1-4.8-0.1-7.3c0-1-0.1-2,0.1-3.1c0.5-2.6,1.8-4.5,4.1-5.7c1.4-0.8,2.9-1.1,4.5-1.3
			c2.2-0.2,4.4-0.2,6.6,0.4c2.7,0.8,4.7,2.4,5.7,5.1c0.3,0.9,0.5,1.9,0.5,2.8C174.8,27.5,174.8,28.8,174.8,30.1z M167.5,29.9
			c0-1.1,0-2.2,0-3.3c0-0.9-0.4-1.7-1.2-2.1c-1-0.5-2.1-0.7-3.2-0.4c-1.4,0.3-2.2,1.4-2.2,2.8c0,2.1,0,4.2,0,6.3
			c0,0.8,0.3,1.5,0.8,2.1c1,1.1,2.2,1.2,3.6,0.9c1.5-0.4,2.3-1.5,2.3-3.1C167.5,32,167.5,30.9,167.5,29.9z"/>
		<path fill="#5B71AB" d="M60.1,31.9c0,2.4,0,4.9,0,7.3c0,0.8-0.1,1.6,0,2.5c0.1,0.3-0.1,0.4-0.4,0.4c-1,0.1-2,0-2.9,0
			c-0.8,0-1.5-0.1-2.3,0c-0.3,0-0.5-0.1-0.6-0.4c0-0.1,0-0.1,0-0.2c-0.4-1-0.4-1-1.4-0.5c-0.9,0.5-1.9,0.7-2.8,1
			c-1.2,0.4-2.5,0.5-3.8,0.5c-1.1,0-2.3-0.4-3.2-1.1c-1.6-1.2-2.4-2.8-2.6-4.7c-0.2-1.5-0.2-2.9,0.3-4.3c0.7-2.1,2.2-3.1,4.2-3.6
			c1.5-0.3,3-0.2,4.5-0.2c1.1,0,2.2,0,3.3,0c0.3,0,0.4-0.1,0.4-0.4c0-0.7,0-1.4-0.2-2.1c-0.2-1-0.9-1.5-1.8-1.6
			c-1.7-0.2-3.4-0.1-5-0.1c-1,0.1-2.1,0-3.1,0c-0.3,0-0.3-0.2-0.3-0.4c0.1-0.8,0.1-1.5,0.2-2.3c0.1-1,0.2-1.9,0.3-2.9
			c0-0.4,0.2-0.6,0.6-0.6c2.1,0,4.3,0,6.4,0c0.9,0,1.7-0.1,2.6,0c2.1,0.2,4,0.7,5.6,2.2c0.9,0.9,1.5,2,1.7,3.3
			c0.2,1.6,0.1,3.1,0.1,4.7C60.1,29.5,60.1,30.7,60.1,31.9C60.1,31.9,60.1,31.9,60.1,31.9z M50.6,33.5
			C50.6,33.5,50.6,33.5,50.6,33.5c-0.5,0-1,0-1.5,0c-0.2,0-0.4,0-0.6,0.1c-0.7,0.3-1.1,0.9-0.9,1.8c0.1,0.8,0.8,1.5,1.6,1.5
			c1.2,0,2.3-0.2,3.3-0.7c0.2-0.1,0.4-0.2,0.4-0.5c0-0.6,0-1.2,0-1.9c0-0.3-0.1-0.3-0.3-0.3C51.8,33.6,51.2,33.5,50.6,33.5z"/>
		<path fill="#5B71AB" d="M34.9,33.1c0,2.8,0,5.6,0,8.4c0,0.4-0.1,0.5-0.5,0.5c-2.1,0-4.2,0-6.3,0c-0.5,0-0.5-0.2-0.5-0.5
			c0-5.5,0-11,0-16.5c0-0.6-0.2-0.7-0.7-0.7c-0.9,0-1.8,0-2.7,0c-0.3,0-0.4-0.1-0.4-0.4c0-1.8,0-3.6,0-5.4c0-0.3,0.1-0.5,0.4-0.4
			c1,0,1.9,0,2.9,0c0.4,0,0.5-0.1,0.5-0.5c0-1.5,0-2.9,0-4.4c0-3.2,2-5.7,5.1-6.4c0.8-0.2,1.6-0.2,2.4-0.2c1.6,0,3.2,0,4.8,0
			c0.4,0,0.5,0.1,0.5,0.5c0,1.7,0,3.4,0,5.2c0,0.4-0.1,0.4-0.4,0.4c-1.1,0-2.1,0-3.2,0c-1.5,0-1.8,0.7-1.9,1.9c-0.1,1,0,2,0,3
			c0,0.4,0.1,0.4,0.5,0.4c1.6,0,3.1,0,4.7,0c0.4,0,0.6,0.1,0.5,0.5c-0.2,1.5-0.4,3-0.5,4.5c0,0,0,0,0,0.1c0,0.4,0.1,0.9-0.2,1.1
			c-0.3,0.3-0.8,0.1-1.2,0.1c-1,0-2.1,0-3.1,0c-0.7,0-0.7,0-0.7,0.7C34.9,27.6,34.9,30.4,34.9,33.1C34.9,33.1,34.9,33.1,34.9,33.1z"
			/>
		<path fill="#5B71AB" d="M62.6,29.9c0-1.2-0.1-2.4,0-3.6c0.2-3.1,1.6-5.6,4.3-7.1c1.4-0.8,3-1.2,4.6-1.3c2.1-0.2,4.2,0,6.3,0.3
			c0.8,0.1,1.7,0.3,2.5,0.4c0.4,0.1,0.5,0.2,0.5,0.6c0,1.5,0.1,3,0.2,4.4c0,0.1,0,0.1,0,0.2c0,0.8-0.1,0.9-0.9,0.8
			c-1.6-0.3-3.1-0.5-4.7-0.6c-1.1-0.1-2.2-0.1-3.4,0.1C70.5,24.5,70,25.4,70,27c0,0.8-0.1,1.6,0,2.4c0.1,1.2,0,2.5,0,3.7
			c0,1.2,1,2.4,2.4,2.8c1.1,0.3,2.3,0.3,3.5,0.2c0.9-0.1,1.8-0.1,2.7-0.2c0.7-0.1,1.4-0.2,2-0.4c0.3-0.1,0.3,0,0.3,0.3
			c0.1,1.2,0.1,2.3,0.1,3.5c0,0.6,0,1.2,0.1,1.8c0,0.3,0,0.4-0.3,0.4c-1.1,0.3-2.2,0.4-3.4,0.6c-1.5,0.2-2.9,0.4-4.4,0.3
			c-1.7,0-3.3-0.3-4.9-1c-2.8-1.1-4.5-3-5.3-5.9c-0.2-0.7-0.3-1.4-0.3-2.1C62.7,32.2,62.6,31,62.6,29.9z"/>
		<path fill="#FEFEFE" d="M113.8,30.5c0-1.7,0-3.4,0-5.1c0-0.3,0.1-0.5,0.4-0.6c0.9-0.5,1.9-0.8,2.9-0.9c1.3-0.1,3.1,0.5,3.4,2.1
			c0,0.1,0,0.3,0,0.4c0,2.1,0,4.2,0,6.4c0,1.6-1,3-2.5,3.4c-0.9,0.2-1.8,0.2-2.6,0.1c-0.4,0-0.7-0.1-1.1-0.1c-0.3,0-0.4-0.1-0.4-0.4
			c0-0.9,0-1.8,0-2.7C113.8,32.3,113.8,31.4,113.8,30.5z"/>
		<path fill="#FEFEFE" d="M93.5,27.2c-0.9,0-1.8,0-2.7,0c-0.1,0-0.4,0.1-0.4-0.2c0-0.7-0.1-1.5,0.2-2.2c0.3-0.8,1-1.2,1.8-1.4
			c0.9-0.2,1.8-0.2,2.6,0.2c0.8,0.3,1.4,1,1.4,1.9c0,0.5,0,0.9,0,1.4c0,0.3-0.1,0.4-0.4,0.4C95.3,27.2,94.4,27.2,93.5,27.2z"/>
		<path fill="#FEFEFE" d="M144,29.9c0,1,0,2.1,0,3.1c0,1.5-0.8,2.6-2.3,3c-1.3,0.4-2.6,0.2-3.6-0.8c-0.6-0.6-0.8-1.4-0.8-2.2
			c0-2,0-4.1,0-6.1c0-1.5,0.8-2.6,2.3-2.9c1.2-0.3,2.3-0.1,3.4,0.5c0.8,0.4,1.1,1.1,1.1,2C144,27.7,144,28.8,144,29.9z"/>
		<path fill="#FEFEFE" d="M167.5,29.9c0,1,0,2.1,0,3.1c0,1.6-0.8,2.7-2.3,3.1c-1.3,0.4-2.6,0.2-3.6-0.9c-0.5-0.6-0.8-1.3-0.8-2.1
			c0-2.1,0-4.2,0-6.3c0-1.4,0.9-2.5,2.2-2.8c1.1-0.3,2.2-0.1,3.2,0.4c0.9,0.4,1.2,1.2,1.2,2.1C167.5,27.7,167.5,28.8,167.5,29.9z"/>
		<path fill="#FEFEFE" d="M50.6,33.5c0.6,0,1.2,0,1.8,0c0.2,0,0.3,0.1,0.3,0.3c0,0.6,0,1.2,0,1.9c0,0.3-0.1,0.4-0.4,0.5
			c-1,0.5-2.1,0.7-3.3,0.7c-0.7,0-1.4-0.8-1.6-1.5c-0.1-0.9,0.2-1.5,0.9-1.8c0.2-0.1,0.4-0.1,0.6-0.1C49.6,33.5,50.1,33.5,50.6,33.5
			C50.6,33.5,50.6,33.5,50.6,33.5z"/>
	</g>
</g>
</svg>
