<?xml version="1.0" encoding="utf-8"?>
<!-- Generator: Adobe Illustrator 18.1.1, SVG Export Plug-In . SVG Version: 6.00 Build 0)  -->
<svg version="1.1" id="Layer_1" xmlns="http://www.w3.org/2000/svg" xmlns:xlink="http://www.w3.org/1999/xlink" x="0px" y="0px"
	 viewBox="0 0 751 191" enable-background="new 0 0 751 191" xml:space="preserve">
<g>
	<g>
		<path fill="#FEFEFE" d="M542,192c-178.8,0-357.7,0-536.5,0.1c-3.7,0-4.7-0.8-4.6-4.6C1.2,178.7,1,169.8,1,161
			c2.1-1.9,4.7-1.4,7.2-1.4c21.1,0,42.3,0,63.4,0c6.6,0,7-0.5,7-7.2c0-3.5-0.2-7,0-10.5c0.2-4.1-1.6-5.6-5.6-5.6
			c-12.5,0.1-25,0.1-37.4,0c-2.3,0-4.7,0.4-6.8-1.1c-1.8-2.5-1.4-5.4-1.4-8.2c0-25.6,0-51.2,0-76.8c0-1.7-0.1-3.3,0-5
			c0.1-3.3-1.5-4.8-4.9-4.8c-4.5,0-9,0-13.5,0c-2.2,0-4.3,0.2-6.4-0.5C2,39.8,1.5,39.4,1,39C1,27.2,1.1,15.3,0.9,3.5
			c0-2.2,0.4-2.9,2.6-2.5c0.6,0.1,1.3,0,2,0C184.3,1,363.2,1,542,1c0.3,0.6,0.2,1.2-0.3,1.7c-7,3.7-9.3,9.4-9.2,17.2
			c0.2,51.1,0.2,102.1,0,153.2c0,7.8,2.2,13.6,9.2,17.2C542.2,190.8,542.3,191.4,542,192z"/>
		<path fill="#FEFEFE" d="M708,1c13.5,0,27,0.1,40.5-0.1c3,0,3.6,0.6,3.6,3.6C752,54,752,103.5,752,153c-2.4,0.2-1.8-2.1-2.7-3.2
			c-1-1.7-2.4-3-4-4.1c-1.6-0.9-3.2-1.6-5.1-1c-1.6,0.4-3.2,0.8-4.3,2.2c-0.3,0.3-0.6,0.6-0.9,1c-2.4,3-3.6,6-0.8,9.5
			c0.8,1.2,1.8,2.3,3,3.2c0.3,0.3,0.7,0.5,1,0.8c2.3,1.6,4.5,1.5,6.7-0.1c0.3-0.3,0.7-0.5,1-0.7c0.7-0.4,1.4-0.8,2.1-1.3
			c1-0.7,1.6-1.8,2-3c0.5-0.7,0.8-1.6,2-1.2c0,11.5-0.1,23,0.1,34.5c0,2.2-0.4,2.6-2.6,2.6c-13.8-0.1-27.7-0.1-41.5-0.1
			c-0.3-0.7-0.2-1.2,0.4-1.6c7.1-3,9.2-8.5,9.2-16c-0.2-51.8-0.2-103.5,0-155.3c0-7.7-1.9-13.3-9.2-16.4C707.8,2.2,707.7,1.6,708,1z
			"/>
		<path fill="#686562" d="M1,39c0.3,0,0.7,0,1,0c2,2.4,1.6,5.4,1.6,8.1c0,34,0,67.9,0,101.9c0,1.8,0,3.7,0.1,5.5
			c0.1,2.4,1.3,3.7,3.7,3.8c1,0.1,2,0.1,3,0.1c20,0,39.9,0,59.9,0c6.6,0,7-0.4,7.1-7.1c0-2.3,0-4.7,0-7c-0.1-6.3-0.4-6.6-6.9-6.7
			c-11.8-0.1-23.6,0.1-35.4-0.1c-2.2,0-5.2,0.8-5.9-2.7c15.4,0.1,30.9,0.2,46.3,0.1c3.8,0,4.8,1,4.6,4.7c-0.3,5.3-0.4,10.6,0,15.9
			c0.3,4.2-0.7,5.6-5.3,5.6C50.2,160.9,25.6,161,1,161C1,120.3,1,79.7,1,39z"/>
		<path fill="#3C81A2" d="M708,1c0.2,0.3,0.2,0.5,0.2,0.8c-1.8,2-4.2,1.8-6.5,1.8c-51.1,0.1-102.2,0.1-153.3,0
			c-2.3,0-4.7,0.2-6.6-1.7c0-0.3,0.1-0.6,0.1-0.9C597.3,1,652.7,1,708,1z"/>
		<path fill="#3C81A2" d="M708.2,191.2c0,0.3-0.1,0.6-0.2,0.8c-55.3,0-110.7,0-166,0c0-0.3-0.1-0.6-0.1-0.9c1.8-1.9,4.3-1.7,6.6-1.7
			c51.1,0,102.2,0,153.2,0C704,189.4,706.4,189.1,708.2,191.2z"/>
		<path fill="#2F2E2B" d="M752,155c-0.4,0.7-0.8,1.3-1.1,2c-1,0.1-1.4-0.5-1.7-1.3c-0.1-2.5-1.9-5.1,0.8-7.3
			c1.7,1.1,0.7,3.4,2.1,4.6C752,153.7,752,154.3,752,155z"/>
		<path fill="#005A86" d="M708.2,191.2c-19.1-0.1-38.3-0.1-57.4-0.2c-36.3,0-72.6,0-108.9,0c-6.8-1.6-10.9-6.2-10.9-12.9
			c-0.1-54.4-0.1-108.9,0-163.3c0-6.7,4.2-11.4,10.9-12.9c54.8,0,109.6,0,164.3,0c0.7,0,1.3-0.1,2-0.2c7.3,1.7,10.9,5.9,10.9,13.2
			c0,54.3,0,108.6,0,162.9C719.2,185.3,715.5,189.6,708.2,191.2z"/>
		<path fill="#191512" d="M502,99.7c0,19-0.1,38,0.1,56.9c0,3.3-0.8,4.3-4.1,4.2c-5.1-0.3-10.3-0.3-15.5,0c-3.8,0.2-5.4-0.8-5.4-4.9
			c0-2.5,1.1-6.6-1-7.4c-2.8-1.1-3.5,3.2-5.3,4.9c-13.3,13.2-38.5,11.8-50.9-3c-16.2-19.3-16.2-49.1,0-68.4
			c10.1-12.1,31.2-16.2,45.2-8.9c1,0.5,2,1.2,3,1.8c1.8,1.1,3.1,4.5,4.8,3.6c2.3-1.2,0.8-4.5,0.9-6.8c0.2-9.5,0.3-19,0-28.5
			c-0.1-3.9,1.2-4.7,4.7-4.5c6.3,0.3,12.7,0.3,19,0c3.6-0.2,4.4,1.1,4.4,4.5c-0.2,18.8-0.1,37.6-0.1,56.5
			C501.8,99.7,501.9,99.7,502,99.7z"/>
		<path fill="#191512" d="M261.2,107.3c7.7-10.8,15.2-21.2,22.4-31.8c2.2-3.3,4.6-4.5,8.5-4.3c8.8,0.3,17.7,0.1,27.3,0.1
			c-2.6,3.1-4.7,5.8-7,8.4c-7,7.8-13.8,15.8-21.2,23.2c-3.5,3.5-3.4,5.7-0.7,9.5c10.8,14.9,21.3,30,31.9,45c0.6,0.9,1.1,2,1.9,3.4
			c-10.7,0-20.9-0.1-31.2,0.1c-2.6,0-3.3-1.8-4.3-3.4c-6-9.9-12.1-19.8-18-29.8c-2-3.3-2.8-4.5-6-0.7c-3.5,4.2-4.9,8.3-4.6,13.6
			c0.3,5.5,0,11,0.1,16.5c0.1,2.6-0.4,3.9-3.5,3.8c-6.8-0.2-13.7-0.2-20.5,0c-2.5,0.1-3.5-0.6-3.5-3.3c0.1-38.5,0.1-77,0-115.4
			c0-2.8,1-3.3,3.5-3.2c6.7,0.1,13.3,0.3,20,0c3.4-0.2,4,1.1,4,4.2c-0.1,20.2-0.1,40.3,0,60.5C260.2,104.5,259.7,105.7,261.2,107.3z
			"/>
		<path fill="#191512" d="M376.8,124.7c-8.9,0.5-19.8-0.4-30.8-0.6c-3.8-0.1-4.3,1.4-3.3,4.4c2.4,7.4,8.2,11.2,15.3,12.7
			c10.7,2.3,21.5,1.4,32.1-1.4c2.7-0.7,3.9-0.6,4.2,2.5c0.3,3,0.8,6,1.8,8.7c1.8,4.8,0.1,6.6-4.6,7.8c-13.4,3.5-26.9,4.7-40.5,2.2
			c-19.7-3.7-31.9-16.1-34.7-36c-2.3-17.2,1.7-32.9,15.2-44.8c13.6-11.9,29.5-14,46.1-8.1c15.8,5.6,22,18.8,24.1,34.3
			c0.6,4.7,0.1,9.6,0.2,14.5c0,2.8-0.9,4.1-4.1,3.9C391.6,124.5,385.3,124.7,376.8,124.7z"/>
		<path fill="#191512" d="M133.8,117.6c0-13,0.1-26-0.1-39c0-2.7,0.5-3.8,3.5-3.7c6.8,0.2,13.7,0.2,20.5,0c3-0.1,3.8,1,3.4,3.7
			c-0.1,0.5-0.1,1,0,1.5c0.3,1.9-1,4.9,0.7,5.5c2.1,0.8,3.2-2.2,4.5-3.8c12.1-14.2,38.7-10.7,48.3,6.4c3.6,6.4,5.2,13.3,5.3,20.5
			c0.2,16,0,32,0.2,48c0,3.4-1.1,4.2-4.2,4.1c-6.3-0.2-12.7-0.3-19,0c-3.8,0.2-5.1-0.7-5-4.8c0.3-15,0.2-30,0.1-45
			c-0.1-11.8-8.2-18.4-18.8-15.6c-7.3,1.9-11.9,8.6-11.9,18c-0.1,14.3-0.1,28.6,0.1,43c0.1,3.5-1,4.5-4.4,4.4
			c-6.3-0.3-12.7-0.3-19,0c-3.5,0.2-4.1-1.1-4.1-4.3C133.9,143.6,133.8,130.6,133.8,117.6z"/>
		<path fill="#191512" d="M29.1,134.9c1.3,2.1,3.3,1.1,5,1.1c13.5,0.1,27,0.2,40.5,0c3.5,0,4.7,0.9,4.5,4.5
			c-0.3,5.1-0.2,10.3,0,15.5c0.1,2.8-0.5,4.2-3.8,4.2c-23.2-0.1-46.3-0.2-69.5,0c-4.4,0-3.8-2.5-3.8-5.1C2,116.3,2,77.7,2,39
			c7.5-0.1,15,0.1,22.5-0.3c3.8-0.2,4.7,0.9,4.6,4.6C29,72.7,29,102,29,131.4C29,132.5,29.1,133.7,29.1,134.9z"/>
		<path fill="#191512" d="M119.7,118.5c0,12.8-0.1,25.6,0.1,38.5c0,3.1-0.8,4-3.9,3.9c-7-0.2-14-0.2-21,0c-2.3,0-3.2-0.6-3.2-3.1
			c0.1-26.6,0.1-53.3,0-79.9c0-2.2,0.7-2.8,2.8-2.8c7.3,0.1,14.7,0.2,22,0c2.9-0.1,3.2,1.2,3.2,3.6
			C119.7,91.8,119.7,105.1,119.7,118.5z"/>
		<path fill="#191512" d="M121.2,48.3c0,8.2-7,14.6-15.8,14.4C97,62.6,90.1,56,90,48.2c-0.1-8.1,6.8-14.3,15.8-14.3
			C115.2,33.8,121.2,39.5,121.2,48.3z"/>
		<path fill="#F4F4F3" d="M749.9,148.4c-1,2.5,0.8,5,0,7.5c-0.4,1.6-0.8,3.2-2,4.4c-0.4,0.7-1.1,0.8-1.8,0.7
			c-0.7-0.3-1.1-0.9-1.4-1.5c-0.9-1.7-1.8-3.4-1.3-5.5c1.3-5.3,1-5.7-4.6-5.5c-0.7,0-1.3,0-1.9-0.2c-0.9-0.6-1.4-1.3-0.9-2.5
			c1.5-1,3.2-1.3,4.9-1.6c2-0.3,3.8,0.8,5.7,0.8C747.7,146.1,748.8,147.2,749.9,148.4z"/>
		<path fill="#F9F9F9" d="M736,146.5c0.4,0.6,0.8,1.2,1.2,1.8c2.1,3.3,1.1,6.9,1.1,10.4c-0.2,0.9-0.5,1.7-1.3,2.3
			c-2-0.1-2.9-1.3-3-3.2c-3.1-3.9-1.9-7.5,1.1-10.8c0-0.3,0-0.7,0-1C735.7,145.5,736,145.7,736,146.5z"/>
		<path fill="#F4F4F3" d="M736.9,161c0.1-0.8,0.2-1.6,0.2-2.4c0.6-0.3,1-0.7,1.3-1.3c1.5-3.5,3.2-3.9,5.1-0.3c0.5,1,1.7,1.4,2.4,2.3
			c0,0.5,0,1.1,0.1,1.6c0,0-0.2,0.1-0.2,0.1c-2.7,2.8-5.8,1.5-8.8,1C737,161.8,737,161.4,736.9,161z"/>
		<path fill="#464542" d="M735,147c-1.7,3.5-2.8,7-1.1,10.8C729.9,155.1,730.3,150.2,735,147z"/>
		<path fill="#3A3936" d="M737.1,162.1c2.9-0.7,6,0.4,8.8-1C743.4,165.4,740.2,163.7,737.1,162.1z"/>
		<path fill="#33302E" d="M746.6,145c-1.9,1.7-3.7-0.7-5.6-0.2c-0.5-0.3-1.2-0.3-1.4-1C742.2,142.4,744.4,143.7,746.6,145z"/>
		<path fill="#312E2C" d="M739.6,143.8c0.5,0.3,0.9,0.7,1.4,1c-1.7,0.6-3.3,1.2-5,1.8c-0.3-0.2-0.7-0.4-1-0.5
			C736.1,144.3,737.8,144,739.6,143.8z"/>
		<path fill="#53514F" d="M747.9,160.3c0.1-1.7,1.1-3,2-4.4c0.3,0.4,0.6,0.7,1,1.1C750.6,158.6,749.5,159.7,747.9,160.3z"/>
		<path fill="#FEFEFE" d="M632.9,84.9c14-14.9,34-16.7,47.1-4.7c7.6,6.9,10.7,16,11,25.9c0.4,17.1,0.1,34.3,0.2,51.5
			c0,2.8-0.8,3.7-3.6,3.6c-7.2-0.2-14.3-0.3-21.5,0c-3.6,0.1-4-1.3-4-4.3c0.1-13.8,0.1-27.7,0-41.5c0-3,0-5.9-0.9-8.9
			c-2.3-8-7-11.6-14.9-10.8c-7.4,0.8-13.3,6.9-13.4,14.3c-0.1,15.5-0.2,31,0,46.5c0.1,3.7-0.8,4.9-4.6,4.7c-6.6-0.3-13.3-0.3-20,0
			c-3.8,0.2-5.1-0.8-5-4.9c0.4-22.8,0.4-45.6,0.6-68.4c0-1.8,0-3.7,0-5.5c0-8,0-8,8.3-8c5,0,10,0.3,15-0.1c4.6-0.4,6.5,1.1,5.7,5.7
			C632.7,81.3,632.9,82.7,632.9,84.9z"/>
		<path fill="#FEFEFE" d="M559.1,117.5c0-12.8,0.2-25.7-0.1-38.5c-0.1-3.9,1.2-4.8,4.8-4.7c6.8,0.3,13.7,0.2,20.5,0
			c2.6-0.1,3.8,0.4,3.8,3.5c-0.1,26.7-0.1,53.3,0,80c0,2.2-0.3,3.3-2.9,3.3c-7.7-0.2-15.3-0.2-23,0c-3,0.1-3.1-1.4-3.1-3.6
			C559.1,144.2,559.1,130.8,559.1,117.5z"/>
		<path fill="#FEFEFE" d="M573.5,63c-9.4,0-16.2-6.5-16.1-15.2c0.1-8.7,6.9-14.9,16.4-14.9c9.9,0,16.3,6.1,16.2,15.4
			C589.9,57.2,583.4,63,573.5,63z"/>
		<path fill="#FEFEFE" d="M473.8,114.9c-0.2,3.5-0.2,7-0.6,10.4c-1,8.2-5.9,13.8-13.3,15.4c-7.6,1.7-16.1-1.7-19.7-8.6
			c-5.8-11.1-5.7-22.4,0.5-33.3c4.1-7.3,12-10,20.2-8c7.4,1.8,12.3,8.2,12.8,16.5c0.1,2.5,0,5,0,7.5
			C473.7,114.9,473.7,114.9,473.8,114.9z"/>
		<path fill="#FDFDFD" d="M359.2,105.9c-4.8,0-9.6,0-14.4,0c-1.7,0-2.7-0.1-2.4-2.5c1.3-9.3,9.2-16.5,18.4-16.3
			c8.8,0.2,16,7.8,15.8,16.5c0,2.2-1.3,2.3-2.9,2.3C368.9,105.9,364,105.9,359.2,105.9z"/>
		<path fill="#34322F" d="M746.1,159.4c-3.3,0.4-2.9-3.7-5.1-4.4c-2.6,0,1.1,6.1-3.8,3.7c0-3.5,0-6.9,0-10.4
			c2.8-2.3,5.8-1.6,8.1,0.4c1.9,1.6,1,3.6-0.8,5.6C742.8,156.2,746,157.5,746.1,159.4z"/>
		<path fill="#DBDBDA" d="M744,151.1c-0.5,1.4-1.6,1.4-2.8,1.3c-1.3-0.1-1.4-1.1-1.3-2.1c0.2-1.4,1.3-1.3,2.3-1.1
			C743.2,149.4,744,149.8,744,151.1z"/>
	</g>
</g>
</svg>
