<?xml version="1.0" encoding="utf-8"?>
<!-- Generator: Adobe Illustrator 18.1.1, SVG Export Plug-In . SVG Version: 6.00 Build 0)  -->
<svg version="1.1" id="Layer_1" xmlns="http://www.w3.org/2000/svg" xmlns:xlink="http://www.w3.org/1999/xlink" x="0px" y="0px"
	 viewBox="0 0 640 480" enable-background="new 0 0 640 480" xml:space="preserve">
<g>
	<g>
		<path d="M64.5,55.8c0-1,0-1.9,0-2.9c0-0.1,0.1-0.1,0.1-0.2c0.4-3.5,2.2-5.9,5.4-7.3c0.3,0,0.5,0,0.8,0c0.2,0.1,0.3,0.2,0.5,0.2
			c6.5,0.8,12.5,3,18.1,6.4c8.3,5,14.8,11.7,20.4,19.5c7.2,10,12.4,21,16.6,32.6c0.2,0.5,0.4,1,0.6,1.5c0.2-0.2,0.2-0.4,0.2-0.6
			c0.4-2.8,0.8-5.7,1.3-8.5c0.1-0.4,0.1-0.9,0-1.3c-1.7-5.3-3.5-10.6-5.2-15.8c-0.8-2.4-1.6-4.9-2.4-7.3c0.1,0,0.2-0.1,0.3-0.1
			c5.8,6.4,7.4,14.3,7.9,22.4c0.3-0.2,0.6-0.7,1-0.7c0.3,0,0.7,0.3,1.1,0.5c0.6-8.2,2.2-16,8.1-22.3c-2.4,7.6-4.9,15.2-7.4,22.7
			c-0.2,0.6-0.2,1.4-0.1,2c0.2,1.8,0.6,3.6,0.9,5.4c0.2,1.6,0.4,3.2,0.6,4.9c0.1-0.2,0.2-0.3,0.2-0.4c2.5-7.5,5.6-14.8,9.3-21.8
			c5.3-10,11.6-19.2,20.2-26.7c6-5.2,12.7-9.2,20.5-11.2c2.1-0.6,4.3-0.9,6.5-1.4c0.3,0,0.5,0,0.8,0c4.2,1.8,5.7,5.1,5.5,9.4
			C196,57,195.6,59,195,61c-1.4,4.7-3.8,8.8-6.3,13c-0.3,0.4-0.5,1-0.5,1.5c-0.3,4.2-0.7,8.3-0.9,12.5c-0.1,2.5,0.2,5,0.5,7.5
			c0.1,1.3,0.5,2.6,0.6,3.9c0.3,3.8-1,7.2-3.4,10.2c-0.9,1.2-2,2.2-3,3.4c4,2.9,7.4,6.1,10,10.3c3.3,5.2,4.4,10.7,2,16.6
			c-2,4.8-5.5,8.4-9.6,11.6c-5.8,4.5-12.3,7.7-19,10.6c-0.4,0.2-0.8,0.3-1.3,0.3c-3.3,0.6-6.4-0.2-9.3-1.7
			c-4.4-2.2-7.7-5.7-10.5-9.6c-4.9-6.8-8-14.5-10.5-22.4c0-0.1-0.1-0.2-0.3-0.5c-0.1,2-0.1,3.9-0.3,5.7c-0.4,3.9-0.9,7.8-1.5,11.7
			c-0.1,1-0.6,1.9-1,2.8c-0.4,0.8-1,0.7-1.4,0c-0.3-0.5-0.6-1.1-0.7-1.7c-0.6-3.6-1.2-7.3-1.6-10.9c-0.2-1.9-0.3-3.9-0.4-5.8
			c-0.3,0.5-0.5,0.9-0.7,1.4c-2.9,8.2-6.3,16.1-12,22.8c-3,3.5-6.5,6.5-11.1,7.9c-2.6,0.8-5.2,1.2-7.7,0.2
			c-5.7-2.3-11.1-5.1-16.2-8.5c-3.9-2.6-7.4-5.6-10.1-9.5c-2.9-4.1-4.2-8.6-3.2-13.7c0.7-3.4,2.3-6.3,4.4-9.1
			c2.4-3.2,5.3-5.9,8.9-8.4c-0.5-0.3-0.9-0.6-1.2-0.9c-1.1-1.2-2.2-2.4-3.1-3.7c-2.1-3.3-2.8-6.8-2.1-10.8c0.6-3,0.7-6.1,0.8-9.2
			c0-3.2-0.3-6.4-0.5-9.5c-0.1-2.2-0.6-4.2-1.8-6.2c-1.8-2.9-3.3-6-4.6-9.2C65.5,60.9,65.1,58.3,64.5,55.8z"/>
		<path fill="#FFFFFF" d="M64.5,55.8c0.6,2.5,1,5,2,7.4c1.3,3.2,2.9,6.3,4.6,9.2c1.2,2,1.6,4,1.8,6.2c0.2,3.2,0.5,6.4,0.5,9.5
			c0,3.1-0.2,6.2-0.8,9.2c-0.7,3.9,0,7.5,2.1,10.8c0.9,1.3,2,2.5,3.1,3.7c0.3,0.3,0.8,0.6,1.2,0.9c-3.5,2.5-6.5,5.2-8.9,8.4
			c-2.1,2.7-3.7,5.7-4.4,9.1c-1,5,0.3,9.5,3.2,13.7c2.7,3.9,6.3,6.9,10.1,9.5c5.1,3.4,10.5,6.2,16.2,8.5c2.6,1,5.2,0.6,7.7-0.2
			c4.5-1.4,8-4.3,11.1-7.9c5.7-6.7,9.1-14.6,12-22.8c0.2-0.5,0.3-0.9,0.7-1.4c0.1,1.9,0.1,3.9,0.4,5.8c0.5,3.7,1.1,7.3,1.6,10.9
			c0.1,0.6,0.4,1.2,0.7,1.7c0.4,0.8,1,0.8,1.4,0c0.4-0.9,0.9-1.8,1-2.8c0.6-3.9,1-7.8,1.5-11.7c0.2-1.8,0.2-3.7,0.3-5.7
			c0.1,0.3,0.2,0.4,0.3,0.5c2.5,7.9,5.7,15.6,10.5,22.4c2.8,4,6.1,7.4,10.5,9.6c2.9,1.5,6,2.3,9.3,1.7c0.4-0.1,0.9-0.2,1.3-0.3
			c6.7-2.9,13.2-6.1,19-10.6c4.1-3.1,7.6-6.7,9.6-11.6c2.4-5.9,1.2-11.4-2-16.6c-2.6-4.1-6.1-7.4-10-10.3c1-1.1,2.1-2.2,3-3.4
			c2.4-3,3.7-6.3,3.4-10.2c-0.1-1.3-0.5-2.6-0.6-3.9c-0.2-2.5-0.5-5-0.5-7.5c0.1-4.2,0.6-8.3,0.9-12.5c0-0.5,0.2-1.1,0.5-1.5
			c2.5-4.1,4.9-8.3,6.3-13c0.6-2,1.1-4.1,1.2-6.1c0.2-4.2-1.3-7.6-5.5-9.4c1.9,0,3.8,0,5.8,0c0,39,0,78.1,0,117.1
			c-44,0-87.9,0-131.9,0C64.5,127,64.5,91.4,64.5,55.8z"/>
		<path fill="#FFFFFF" d="M189.8,45.5c-2.2,0.5-4.3,0.8-6.5,1.4c-7.8,2-14.5,6-20.5,11.2c-8.6,7.5-14.9,16.7-20.2,26.7
			c-3.7,7-6.8,14.3-9.3,21.8c0,0.1-0.1,0.2-0.2,0.4c-0.2-1.7-0.3-3.3-0.6-4.9c-0.3-1.8-0.6-3.6-0.9-5.4c-0.1-0.7-0.1-1.4,0.1-2
			c2.5-7.6,5-15.1,7.4-22.7c-5.9,6.3-7.6,14.1-8.1,22.3c-0.4-0.2-0.8-0.5-1.1-0.5c-0.3,0-0.6,0.5-1,0.7c-0.5-8.1-2.1-16-7.9-22.4
			c-0.1,0-0.2,0.1-0.3,0.1c0.8,2.4,1.6,4.9,2.4,7.3c1.7,5.3,3.5,10.5,5.2,15.8c0.1,0.4,0.1,0.8,0,1.3c-0.4,2.8-0.8,5.7-1.3,8.5
			c0,0.2,0,0.4-0.2,0.6c-0.2-0.5-0.4-1-0.6-1.5c-4.2-11.6-9.4-22.6-16.6-32.6c-5.6-7.8-12.1-14.6-20.4-19.5
			c-5.6-3.3-11.6-5.6-18.1-6.4c-0.2,0-0.3-0.1-0.5-0.2C110.5,45.5,150.2,45.5,189.8,45.5z"/>
		<path fill="#FFFFFF" d="M70.1,45.5c-3.2,1.4-5,3.8-5.4,7.3c0,0.1-0.1,0.1-0.1,0.2c0-2.5,0-4.9,0-7.4
			C66.4,45.5,68.2,45.5,70.1,45.5z"/>
	</g>
</g>
<g>
	<g>
		<path fill="#FFFFFF" d="M360.6,108.9c68.1,0,136.2,0,204.4,0c0,108.9,0,217.8,0,326.7c-111.8,0-223.6,0-335.4,0
			c0-84.4,0-168.9,0-253.3c0.7,0.6,1.6,1.2,2,2c2.6,5.4,6.5,9.7,11.1,13.6c2.3,2,4.8,3.9,6.7,6.2c6.2,7.2,12.2,14.5,18.3,21.7
			c2,2.4,4.4,4.5,6.6,6.7c2.5,2.6,4.7,5.8,7.6,7.9c6.6,4.6,13.5,8.8,20.4,12.9c2.8,1.6,5.5,3,7.9,5.4c4.7,4.6,9.7,8.9,15,12.8
			c3.5,2.5,6.2,5.3,8.5,9c4.2,6.8,8.4,13.7,14.9,18.6c1.3,1,2.7,2,3.7,3.4c2.7,3.9,5.9,7.2,9.6,10.1c2.4,1.9,5.7,3.7,5.3,7.4
			c-0.7,6.5,1.4,12.3,3.1,18.3c0.4,1.5,1.6,2.7,2.3,4.1c0.6,1.2,1.1,2.4,1.6,3.7c0.6,1.5,0.7,3.4,1.6,4.6
			c3.9,5.3,7.2,11.1,12.2,15.6c2,1.8,3.1,4.5,2.8,7.2c-0.3,2.7-1.8,5.1-4.4,6.6c-1.6,0.9-3,2.4-4.3,3.8c-1.3,1.4-2.6,2-4.6,2.1
			c-3.9,0.1-7.9-0.1-11.1,3.5c-2.5,2.8-2.1,8.6,1.5,9.7c3.5,1,7.5,2.1,10.8,1.3c4.3-1.1,8.5-3.6,12.2-6.2c3.9-2.8,7.2-6.5,11.2-10.3
			c4.1,3.6,8.3,7,12.1,10.8c1.4,1.4,2.8,4,2.4,5.7c-0.7,3.5-2.8,6.5-6,8.6c-1.8,1.2-3.3,3-4.9,4.6c-1.8,1.8-2.8,4.7-5.8,5
			c-3.1,0.3-4.3,2.3-4.5,4.9c-0.2,2.6-0.5,5.6,0.7,7.7c1.1,1.9,4,2.8,6.2,4.1c0.3,0.2,1,0.1,1.2-0.1c2-2.1,3.9-4.3,5.8-6.5
			c0.5-0.6,0.8-1.5,1.4-1.9c5.2-3.7,9.9-7.8,14.2-12.7c4-4.6,6.3-10.2,9.3-15.4c2-3.5,3.7-7.2,4.7-11.3c1.3-5.7,1.9-11-2.6-15.6
			c-1.2-1.2-1-2,0.1-3.1c1.1-1.2,2.4-2.5,2.9-4c1.6-4.8,2.8-9.8,4.3-14.7c0.7-2.5,1.5-4.9,4-6.4c1.7-1,2.6-2.4,2.6-4.6
			c0.1-3.1,1-6,4-7.7c0.5-0.3,0.8-1,1.1-1.5c2.3-4.1,4.4-8.3,6.9-12.2c2.2-3.6,4.7-7.2,10-5.1c0.2,0.1,0.5,0,0.8,0
			c12.4,0.5,24.7-0.1,36.8-3.1c2.7-0.7,5.4-1.5,8-2.4c1.9-0.7,3.6-1.7,5.4-2.7c3.3-1.8,6.8-3.2,9.6-5.5c3.9-3.1,7.4-6.7,10.8-10.2
			c4.3-4.5,9.4-7.7,14.9-10.4c3.4-1.6,6.6-3.3,5.9-8.1c-0.3-2.1-0.9-2.9-3.1-3c-7.2-0.3-13.4,2.1-19.5,5.8
			c-6.2,3.8-11.6,8.5-16.8,13.7c-2.3,2.2-5.1,4.2-8.1,5.4c-6.5,2.6-13.5,3.3-20.4,3.1c-5.2-0.2-10.5-1-15.6-1.9
			c-4.6-0.9-9.3-1.8-13.6-3.6c-7-2.8-12.8-7.3-17.2-13.6c-3-4.4-5.9-9-9.5-12.8c-7.5-7.8-14.1-16.3-21.2-24.5
			c-6.4-7.5-13.4-14.6-22.8-18.7c-3.9-1.7-6.7-4.5-5.7-9.4c0.3-1.4,0.1-2.9,0-4.3c-0.2-3.7-0.4-7.5-2.4-10.9c-1.4-2.3-2.9-4.9-3-7.4
			c-0.2-3.5,0.7-7.1,1.2-10.6c0.5-3.4,1.8-6.9,1.5-10.3c-0.4-4.9-1.5-9.9-3.2-14.4c-2-5.1-5.2-9.6-10.4-12.4
			c-6.2-3.4-9.7-8.5-10.3-15.8c-0.2-2.9-1.2-5.7-1.9-8.5C362.1,113.4,361.3,111.2,360.6,108.9z"/>
		<path d="M360.6,108.9c0.7,2.3,1.5,4.5,2.1,6.8c0.7,2.8,1.7,5.6,1.9,8.5c0.5,7.2,4.1,12.4,10.3,15.8c5.2,2.8,8.4,7.3,10.4,12.4
			c1.8,4.6,2.8,9.6,3.2,14.4c0.3,3.4-1,6.9-1.5,10.3c-0.5,3.5-1.5,7.1-1.2,10.6c0.2,2.5,1.7,5.1,3,7.4c2,3.4,2.2,7.1,2.4,10.9
			c0.1,1.4,0.2,2.9,0,4.3c-1,5,1.8,7.7,5.7,9.4c9.3,4.2,16.3,11.2,22.8,18.7c7,8.2,13.6,16.7,21.2,24.5c3.7,3.8,6.5,8.4,9.5,12.8
			c4.4,6.3,10.2,10.8,17.2,13.6c4.3,1.8,9,2.7,13.6,3.6c5.2,1,10.4,1.8,15.6,1.9c6.9,0.2,13.9-0.5,20.4-3.1c2.9-1.2,5.8-3.1,8.1-5.4
			c5.1-5.1,10.6-9.8,16.8-13.7c6-3.7,12.3-6.1,19.5-5.8c2.1,0.1,2.8,0.9,3.1,3c0.7,4.8-2.5,6.5-5.9,8.1c-5.5,2.7-10.6,5.9-14.9,10.4
			c-3.5,3.6-6.9,7.2-10.8,10.2c-2.9,2.3-6.4,3.7-9.6,5.5c-1.8,1-3.5,2-5.4,2.7c-2.6,1-5.3,1.8-8,2.4c-12.1,3-24.4,3.7-36.8,3.1
			c-0.3,0-0.5,0.1-0.8,0c-5.3-2.1-7.7,1.5-10,5.1c-2.5,4-4.6,8.1-6.9,12.2c-0.3,0.5-0.6,1.2-1.1,1.5c-2.9,1.8-3.9,4.6-4,7.7
			c-0.1,2.1-0.9,3.6-2.6,4.6c-2.5,1.4-3.3,3.9-4,6.4c-1.5,4.9-2.7,9.9-4.3,14.7c-0.5,1.5-1.8,2.8-2.9,4c-1.1,1.1-1.3,1.9-0.1,3.1
			c4.5,4.6,3.8,9.8,2.6,15.6c-0.9,4.1-2.7,7.8-4.7,11.3c-3,5.2-5.2,10.7-9.3,15.4c-4.2,4.9-9,9-14.2,12.7c-0.6,0.4-0.9,1.3-1.4,1.9
			c-1.9,2.2-3.8,4.4-5.8,6.5c-0.2,0.2-0.9,0.3-1.2,0.1c-2.2-1.3-5.1-2.2-6.2-4.1c-1.2-2-0.9-5.1-0.7-7.7c0.2-2.6,1.4-4.6,4.5-4.9
			c3-0.3,4-3.2,5.8-5c1.6-1.6,3.1-3.4,4.9-4.6c3.2-2.1,5.2-5.2,6-8.6c0.3-1.7-1-4.3-2.4-5.7c-3.8-3.8-8-7.2-12.1-10.8
			c-4,3.8-7.3,7.4-11.2,10.3c-3.7,2.6-7.9,5.1-12.2,6.2c-3.3,0.8-7.4-0.2-10.8-1.3c-3.6-1.1-4-6.9-1.5-9.7c3.1-3.5,7.1-3.3,11.1-3.5
			c2-0.1,3.3-0.7,4.6-2.1c1.3-1.4,2.7-2.8,4.3-3.8c2.6-1.5,4.1-3.8,4.4-6.6c0.3-2.7-0.8-5.4-2.8-7.2c-5-4.5-8.3-10.3-12.2-15.6
			c-0.9-1.2-1-3.1-1.6-4.6c-0.5-1.3-1-2.5-1.6-3.7c-0.7-1.4-1.9-2.7-2.3-4.1c-1.8-6-3.9-11.8-3.1-18.3c0.4-3.6-2.9-5.5-5.3-7.4
			c-3.7-2.9-6.9-6.2-9.6-10.1c-0.9-1.3-2.4-2.4-3.7-3.4c-6.6-4.9-10.7-11.8-14.9-18.6c-2.2-3.6-5-6.5-8.5-9
			c-5.3-3.9-10.4-8.2-15-12.8c-2.4-2.4-5.1-3.8-7.9-5.4c-6.9-4.1-13.8-8.3-20.4-12.9c-2.9-2.1-5.1-5.2-7.6-7.9
			c-2.2-2.3-4.6-4.3-6.6-6.7c-6.2-7.2-12.1-14.5-18.3-21.7c-2-2.3-4.4-4.2-6.7-6.2c-4.5-3.8-8.4-8.2-11.1-13.6c-0.4-0.8-1.3-1.3-2-2
			c0-1,0-2,0-3.1c0.3-0.5,0.9-1,1-1.6c0.6-4.8,2.2-8.9,6.8-11.2c0.5-0.3,1.4-0.2,2,0c2.2,0.5,4.3,1.2,6.4,1.6c2.5,0.5,5,0.4,6,3.5
			c0.2,0.7,1.5,1.1,2.2,1.7c1,0.9,1.9,1.8,2.7,2.9c1.2,1.6,1.8,3.9,3.3,5c3.1,2.2,6.7,3.9,10.1,5.7c2.2,1.2,4.3,2.4,6.6,3.3
			c2.5,0.9,5.2,1.1,7.6,2.2c5.3,2.6,10.5,5.6,15.7,8.4c1.2,0.6,2.7,1.4,3.9,1.2c2.2-0.4,4.3-1.3,5.3-3.9c0.7-2.1,1.9-4.2,3.3-5.9
			c3.5-4.2,4.6-10.1,9.9-12.7c-1.5-1.9-2.8-3.8-4.4-5.4c-2.3-2.2-4-4.5-4-7.7c0-1.6,0.4-3.2,0.3-4.7c-0.2-2.6,1-4.4,2.6-6.2
			c1.4-1.6,2.4-3.6,3.6-5.4c1.9-2.9,3.6-6,5.9-8.5c1.7-1.9,4.2-3,6.2-4.6c2-1.6,4.2-2.4,6.7-2c0.6,0.1,1.4,0.2,1.7-0.1
			c3.1-2.3,6.7-2,9.8-1.9c4.5-7.6,3.1-16.9,8.4-24C359.6,108.9,360.1,108.9,360.6,108.9z"/>
		<path fill="#FFFFFF" d="M359.1,108.9c-5.2,7.1-3.9,16.3-8.4,24c-3.1-0.1-6.7-0.4-9.8,1.9c-0.4,0.3-1.2,0.2-1.7,0.1
			c-2.6-0.4-4.7,0.5-6.7,2c-2,1.6-4.6,2.7-6.2,4.6c-2.3,2.6-3.9,5.7-5.9,8.5c-1.2,1.8-2.2,3.8-3.6,5.4c-1.6,1.8-2.8,3.6-2.6,6.2
			c0.1,1.5-0.3,3.1-0.3,4.7c0,3.3,1.7,5.6,4,7.7c1.6,1.5,2.9,3.5,4.4,5.4c-5.3,2.5-6.4,8.5-9.9,12.7c-1.4,1.7-2.6,3.8-3.3,5.9
			c-0.9,2.7-3.1,3.5-5.3,3.9c-1.2,0.2-2.7-0.5-3.9-1.2c-5.3-2.8-10.4-5.8-15.7-8.4c-2.3-1.1-5.1-1.3-7.6-2.2
			c-2.3-0.9-4.4-2.1-6.6-3.3c-3.4-1.8-6.9-3.5-10.1-5.7c-1.5-1.1-2.1-3.4-3.3-5c-0.8-1.1-1.7-2-2.7-2.9c-0.7-0.6-1.9-1-2.2-1.7
			c-1-3.1-3.5-3.1-6-3.5c-2.2-0.4-4.3-1.1-6.4-1.6c-0.6-0.1-1.5-0.2-2,0c-4.6,2.3-6.2,6.5-6.8,11.2c-0.1,0.6-0.6,1-1,1.6
			c0-23.4,0-46.8,0-70.3C272.8,108.9,315.9,108.9,359.1,108.9z"/>
	</g>
</g>
</svg>
